<svg width="100" height="100" viewBox="0 0 100 100" fill="none" xmlns="http://www.w3.org/2000/svg">
<path d="M0 30C0 13.4315 13.4315 0 30 0H38.4615C43.772 0 48.0769 4.30496 48.0769 9.61539C48.0769 30.8571 30.8571 48.0769 9.61538 48.0769C4.30496 48.0769 0 43.772 0 38.4615V30Z" fill="#2B2B2B"/>
<path d="M30 100C13.4315 100 1.60169e-07 86.5685 3.57746e-07 70L4.58649e-07 61.5385C5.21975e-07 56.228 4.30496 51.9231 9.61539 51.9231C30.8571 51.9231 48.0769 69.1429 48.0769 90.3846C48.0769 95.695 43.772 100 38.4615 100L30 100Z" fill="#2B2B2B"/>
<path d="M100 70C100 86.5685 86.5685 100 70 100L61.5385 100C56.228 100 51.9231 95.695 51.9231 90.3846C51.9231 69.1429 69.1429 51.9231 90.3846 51.9231C95.695 51.9231 100 56.228 100 61.5385L100 70Z" fill="#2B2B2B"/>
<path d="M70 -1.31134e-06C86.5685 -5.87108e-07 100 13.4315 100 30L100 38.4615C100 43.772 95.695 48.0769 90.3846 48.0769C69.1429 48.0769 51.9231 30.8571 51.9231 9.61538C51.9231 4.30495 56.228 -1.91333e-06 61.5385 -1.68121e-06L70 -1.31134e-06Z" fill="#2B2B2B"/>
</svg>
