<svg width="100" height="100" viewBox="0 0 100 100" fill="none" xmlns="http://www.w3.org/2000/svg">
<path d="M30 2H38.4619C42.6676 2.0002 46.0771 5.40957 46.0771 9.61523C46.0771 29.7524 29.7524 46.0771 9.61523 46.0771C5.40957 46.0771 2.0002 42.6676 2 38.4619V30C2.00001 14.536 14.536 2 30 2Z" stroke="#2B2B2B" stroke-width="4"/>
<path d="M2 70L2 61.5381C2.0002 57.3324 5.40957 53.9229 9.61523 53.9229C29.7524 53.9229 46.0771 70.2476 46.0771 90.3848C46.0771 94.5904 42.6676 97.9998 38.4619 98L30 98C14.536 98 2 85.464 2 70Z" stroke="#2B2B2B" stroke-width="4"/>
<path d="M70 98L61.5381 98C57.3324 97.9998 53.9229 94.5904 53.9229 90.3848C53.9228 70.2476 70.2476 53.9229 90.3848 53.9229C94.5904 53.9229 97.9998 57.3324 98 61.5381L98 70C98 85.464 85.464 98 70 98Z" stroke="#2B2B2B" stroke-width="4"/>
<path d="M98 30L98 38.4619C97.9998 42.6676 94.5904 46.0771 90.3848 46.0771C70.2476 46.0771 53.9229 29.7524 53.9229 9.61523C53.9229 5.40957 57.3324 2.0002 61.5381 2L70 2C85.464 2.00001 98 14.536 98 30Z" stroke="#2B2B2B" stroke-width="4"/>
</svg>
